<?xml version="1.0" standalone="no"?>
<!DOCTYPE svg PUBLIC "-//W3C//DTD SVG 20010904//EN"
 "http://www.w3.org/TR/2001/REC-SVG-20010904/DTD/svg10.dtd">
<svg version="1.0" xmlns="http://www.w3.org/2000/svg"
 width="512.000000pt" height="512.000000pt" viewBox="0 0 512.000000 512.000000"
 preserveAspectRatio="xMidYMid meet">

<g transform="translate(0.000000,512.000000) scale(0.100000,-0.100000)"
fill="#000000" stroke="none">
<path d="M1780 5106 c-225 -41 -443 -140 -633 -290 -91 -71 -133 -112 -171
-170 -81 -122 28 -262 362 -462 59 -35 111 -64 117 -64 5 1 35 38 65 83 66
100 238 275 340 346 139 97 348 195 462 216 35 7 41 13 88 102 28 53 50 97 48
98 -18 16 -115 68 -158 85 -153 62 -362 84 -520 56z"/>
<path d="M3120 5074 c-84 -22 -197 -79 -275 -139 -61 -46 -115 -103 -115 -120
0 -3 19 -5 43 -5 52 0 215 -25 282 -43 32 -9 59 -11 74 -5 13 4 55 13 95 19
135 20 186 60 186 144 0 132 -121 194 -290 149z"/>
<path d="M2515 4499 c-295 -43 -526 -176 -695 -401 -148 -196 -255 -467 -375
-948 -59 -237 -114 -436 -160 -580 -191 -598 56 -1027 687 -1189 374 -96 898
-98 1403 -5 76 14 169 35 205 46 275 85 487 308 564 593 23 85 31 246 17 330
-7 39 -35 140 -62 225 -28 85 -84 286 -125 445 -133 516 -175 646 -269 842
-74 155 -161 278 -265 376 -97 90 -159 131 -278 183 -187 81 -439 113 -647 83z"/>
<path d="M3170 1039 c-220 -29 -538 -36 -778 -17 -226 18 -203 23 -224 -46
-64 -209 -37 -473 70 -681 46 -89 164 -210 242 -247 101 -47 210 -60 306 -34
216 57 373 281 335 476 -12 60 -12 61 17 98 78 98 117 228 109 360 -3 46 -9
87 -13 91 -5 4 -34 4 -64 0z"/>
</g>
</svg>
